<?xml version="1.0" encoding="utf-8"?>
<svg version="1.1" xmlns="http://www.w3.org/2000/svg"
	xmlns:xlink="http://www.w3.org/1999/xlink" x="0px" y="0px"
	viewBox="0 0 256 128" style="enable-background:new 0 0 256 128;" xml:space="preserve">
<style type="text/css">
	.st0{fill:#333333;fill-opacity:0;}
	.st1{opacity:0.8;fill:#E62C5A;enable-background:new;}
	.st2{opacity:0.8;fill:#0FABF6;enable-background:new;}
	.st3{opacity:0.5;fill:#501B8D;enable-background:new;}
	.st4{fill:#333333;}
</style>
<g transform="translate(81.56239318847656,79.98116683959961)">
	<g transform="translate(58.43760681152344,0)">
		<g>
			<rect x="-51.3" y="-72.1" class="st0" width="78.6" height="85.2"/>
			<path class="st1" d="M14-24.9l-30.9-30.7l-15.6-15.5c-1.6-0.7-3.2-1-4.9-1c-7.5,0-13.6,6.9-13.8,15.5v37
				c-0.1,8.8,6.9,16,15.7,16.1c0,0,0,0,0,0H7.7c5.2-2.5,8.5-7.8,8.5-13.6C16.2-19.8,15.4-22.6,14-24.9z"/>
			<path class="st2" d="M11.6-55.6h-43.3c-5.2,2.5-8.5,7.8-8.5,13.6c0,2.8,0.8,5.5,2.2,7.8L-7.1-3.5L8.6,12.1c1.6,0.7,3.2,1,4.9,1
				c7.5,0,13.6-6.9,13.8-15.5v-37.1C27.4-48.2,20.4-55.4,11.6-55.6z"/>
			<path class="st3" d="M-38-34.1L-7.1-3.5H7.7c5.2-2.5,8.5-7.8,8.5-13.6c0-2.8-0.8-5.5-2.2-7.8l-30.9-30.7h-14.8
				c-5.2,2.5-8.5,7.8-8.5,13.6C-40.2-39.2-39.4-36.5-38-34.1z"/>
		</g>
	</g>
	<g transform="translate(0,72.08086395263672)">
		<g>
			<g transform="scale(0.35999999999999927)">
				<g>
					<path class="st4" d="M-23.8-110l-12.6-19.6c-1-1.9-3.5-1.3-3.5,0.9V-99c0,2.5,3.8,2.5,3.8,0v-23.4l10.5,16.4
						c0.8,1.5,2.7,1.5,3.6,0l10.5-16.5V-99c0,2.5,3.8,2.5,3.8,0v-29.7c0-2.2-2.4-2.8-3.6-0.9L-23.8-110z M5.1-112.2h19.4
						c2.2,0,2.1-3.3,0-3.3H5.1v-11.6h20.4c2.2,0,2.3-3.3,0-3.3H3.7c-1.4,0-2.4,1-2.4,2.2v28.3c0,1.2,0.9,2.3,2.4,2.3h21.7
						c2.5,0,2.2-3.4,0-3.4H5.1V-112.2z M32.7-130.4c-2.4,0-2.4,3.6,0,3.6h11.4v28c0,1.3,1,1.9,1.9,1.9c0.9,0,2-0.6,2-1.9
						c0-9.3-0.1-18.7-0.1-28h11.5c2.5,0,2.5-3.6,0-3.6H32.7z M82.5-109.5H66.3l8.1-16.2L82.5-109.5z M84.1-106.2l4,8
						c1,2,4.8,0.7,3.5-1.5l-15.5-30.5c-0.4-0.7-1-1-1.7-1c-0.7,0-1.4,0.3-1.7,1L57.1-99.6c-0.9,2.1,2.5,3.4,3.4,1.5l4.2-8.1H84.1z
						 M124-103.5c1.3-1.9-1.8-3.8-3-2.1c-1.1,1.4-2.6,2.6-4.2,3.5c-2,1-4.1,1.5-6,1.5c-7.1,0-13.1-6-13.1-13.8
						c0-7.5,4.5-12,10.8-12.9c4.5-0.5,8.6,0,12.1,3.8c1.4,1.5,4.2-0.6,2.7-2.3c-4.1-4.3-9.3-5.8-15.4-5c-7.9,1.2-14,7.9-14,16.4
						c0,10.2,7.9,17.4,16.8,17.4c2.5,0,5.3-0.7,7.7-1.9C120.6-99.9,122.6-101.5,124-103.5z M156.7-112.1c0,14.9-22.7,14.9-22.7,0
						V-129c0-2.3-3.9-2.3-3.9,0v17c0,9.9,7.7,14.9,15.2,14.9c7.5,0,15.2-5,15.2-14.9v-17c0-2.5-3.9-2.5-3.9,0V-112.1z M198.1-107.3
						c0-4.2-2.6-6.8-6.3-8c2.7-1.1,4-3.5,4-6.1c0-7.3-7.4-8.9-12.2-8.9h-12.2c-1,0-1.9,0.8-1.9,1.9v29.1c0,1,0.9,1.9,1.9,1.9h13.4
						C191.2-97.6,198.1-99.6,198.1-107.3z M183.5-127c3.2,0,8.5,1.1,8.5,5.6c0,3.8-3.9,5-8.3,5h-10.5V-127H183.5z M173.2-113.1h13.1
						c4.5,0,8,1.8,8,5.8c0,5.2-5,6.4-9.5,6.4h-11.6V-113.1z M208.5-112.2h19.4c2.2,0,2.1-3.3,0-3.3h-19.4v-11.6h20.4
						c2.2,0,2.3-3.3,0-3.3h-21.8c-1.4,0-2.4,1-2.4,2.2v28.3c0,1.2,0.9,2.3,2.4,2.3h21.7c2.5,0,2.2-3.4,0-3.4h-20.4V-112.2z
						 M238.4-130.3c-1.5-1.8-4.3,0.5-2.8,2.2l11.9,13.7l-12.3,14c-1.7,2,0.9,4.4,2.8,2.3l11.9-13.7L261.7-98c2,2,4.6-0.1,2.9-2.3
						l-12.3-14.1l12-13.6c1.6-1.8-1.3-4.1-2.8-2.3l-11.4,13.4L238.4-130.3z M272.6-127.1h9.9c7.7,0,11.6,6.6,11.6,13.1
						c0,6.5-3.9,13-11.6,13h-9.9V-127.1z M282.5-97.6c10.3,0,15.4-8.2,15.4-16.4c0-8.2-5.1-16.4-15.4-16.4h-11.2
						c-1.3,0-2.4,1-2.4,2.2v28.4c0,1.2,1.1,2.2,2.4,2.2H282.5z"/>
				</g>
			</g>
		</g>
	</g>
</g>
</svg>